<?xml version="1.0" encoding="UTF-8"?>
<svg id="Layer_2" data-name="Layer 2" xmlns="http://www.w3.org/2000/svg" viewBox="0 0 136.17 114.64">
  <defs>
    <style>
      .cls-1 {
        fill: #fedb5b;
      }

      .cls-2 {
        fill: #0f3822;
      }
    </style>
  </defs>
  <g id="Layer_1-2" data-name="Layer 1">
    <g>
      <path class="cls-2" d="M118.68,37.77l-1.81-7.4c3.3-3.31,5.19-7.81,5.19-12.56,0-9.82-7.99-17.81-17.82-17.81s-17.81,7.99-17.81,17.81c0,8.36,5.91,15.49,13.77,17.33l.43,1.75H17.73c-1.87,0-3.61.84-4.77,2.3C8.22,45.19.25,57.88,0,75.67v.03s0,.04,0,.06v.07c0,.53,0,1.05,0,1.56v.34c.02.47.03.93.06,1.44.73,15.9,7.67,27.5,11.77,33.03,1.14,1.52,2.96,2.43,4.87,2.43,2.68,0,.76,0,4.28,0,.1,0,.2,0,.3,0h9.28c.11,0,.21,0,.32-.01l15.13-.03c.2.03.4.04.61.04h3.16c.21,0,.42-.01.63-.04l10.73-.03c15.73-.03,31.46-.06,47.68-.06h.42c.17,0,.33,0,.49-.03,6.25-.31,12.29-4.09,17.04-10.71,4.74-6.61,7.94-15.61,8.99-25.35,2.2-20.29-5.03-36.96-17.09-40.65Z"/>
      <g>
        <path class="cls-1" d="M115.19,41.74s-.08,0-.12-.01l-3.19-13.06c3.46-2.37,5.75-6.35,5.75-10.86,0-7.25-5.91-13.16-13.17-13.16s-13.16,5.91-13.16,13.16,5.76,13.01,12.88,13.15l2.58,10.59H17.94c-.43,0-.85.19-1.12.54-4.37,5.53-11.75,17.26-11.96,33.66-.2,16.24,6.75,28.06,10.9,33.66.27.36.7.58,1.15.58,2.77,0,1.82,0,4.57-.01,0,0,0,0,0,.01h9.28s0,0,0-.01c5.37-.01,10.71-.02,16.03-.03,0,.01.01.03.02.04h3.16s0-.03,0-.04c3.79-.01,7.57-.02,11.35-.03,15.73-.03,31.46-.06,47.69-.06h.42c4.91-.14,9.73-3.2,13.75-8.79,4.29-5.98,7.18-14.2,8.15-23.14,2.07-19.08-5.04-34.97-16.17-36.18Z"/>
        <path class="cls-2" d="M109.1,109.59c-.42,0-.83-.02-1.25-.07-10.8-1.17-17.95-17.26-15.93-35.88.96-8.9,3.84-17.08,8.11-23.02,4.4-6.14,9.79-9.19,15.14-8.62,10.8,1.17,17.95,17.26,15.94,35.88h0c-1.94,17.89-11.65,31.7-22,31.7ZM113.88,44.26c-4.16,0-8.37,2.7-11.97,7.71-4.03,5.62-6.76,13.4-7.68,21.91-1.88,17.34,4.35,32.28,13.87,33.32,9.52,1.03,18.8-12.24,20.68-29.57h0c1.88-17.34-4.35-32.28-13.87-33.32-.34-.04-.69-.06-1.03-.06Z"/>
        <path class="cls-2" d="M15.48,109.72c-.37,0-.71-.17-.93-.47-4.14-5.57-11.05-17.34-10.84-33.5.2-16.33,7.54-28,11.9-33.5.22-.28.56-.44.91-.44h95v2.33H17.07c-4.2,5.44-10.86,16.42-11.05,31.64-.19,15.04,6.05,26.1,10.04,31.61,16.16,0,31.28-.03,46.4-.07,15.31-.03,30.61-.07,46.99-.07v2.32c-16.38,0-31.68.03-46.99.07-15.31.03-30.61.07-46.99.07Z"/>
        <path class="cls-2" d="M93.58,53.52c-3.32,6.11-6.49,14.77-6.49,25.52,0,10.05,2.8,18.26,5.74,24.1H20.67c-2.49-3.64-6.53-12.4-7.38-24.97-.75-11.02,2.71-19.81,5.25-24.65h75.04M97.66,51.2H17.16c-2.13,3.77-7.1,13.71-6.19,27.13.96,14.24,5.85,23.81,8.53,27.13h77.26c-2.39-3.97-7.35-13.43-7.35-26.43,0-13.97,5.75-23.98,8.25-27.84h0Z"/>
        <path class="cls-2" d="M120,87.1c-3.51,0-6.25-4.56-6.25-10.38s2.75-10.38,6.25-10.38,6.25,4.56,6.25,10.38-2.75,10.38-6.25,10.38ZM120,68.67c-1.86,0-3.93,3.31-3.93,8.05s2.07,8.05,3.93,8.05,3.93-3.31,3.93-8.05-2.07-8.05-3.93-8.05Z"/>
        <g>
          <circle class="cls-1" cx="104.47" cy="17.81" r="11.73"/>
          <path class="cls-2" d="M104.47,30.7c-7.11,0-12.89-5.78-12.89-12.89s5.78-12.89,12.89-12.89,12.89,5.78,12.89,12.89-5.78,12.89-12.89,12.89ZM104.47,7.24c-5.83,0-10.57,4.74-10.57,10.57s4.74,10.57,10.57,10.57,10.57-4.74,10.57-10.57-4.74-10.57-10.57-10.57Z"/>
        </g>
        <path class="cls-2" d="M101.5,18.97c-2.28,0-4.13-1.85-4.13-4.13s1.85-4.13,4.13-4.13,4.13,1.85,4.13,4.13-1.85,4.13-4.13,4.13ZM101.5,13.05c-.99,0-1.8.81-1.8,1.8s.81,1.8,1.8,1.8,1.8-.81,1.8-1.8-.81-1.8-1.8-1.8Z"/>
        <g>
          <polygon class="cls-1" points="110.34 28.39 105.33 29.62 114.65 67.82 119.8 67.15 110.34 28.39"/>
          <path class="cls-2" d="M114.65,68.98c-.53,0-1-.36-1.13-.89l-9.32-38.21c-.15-.62.23-1.25.85-1.41l5.01-1.22c.3-.07.62-.02.88.14.26.16.45.42.53.72l9.45,38.76c.08.32.02.66-.17.93-.19.27-.48.45-.81.5l-5.14.67c-.05,0-.1.01-.15.01ZM106.74,30.47l8.8,36.06,2.82-.37-8.87-36.37-2.75.67Z"/>
        </g>
        <path class="cls-2" d="M113.03,87.44c-.39,0-.75-.19-.97-.52-1.08-1.62-2.91-5.02-2.93-9.57-.03-4.55,1.76-7.98,2.83-9.62.19-.29.49-.48.83-.52l7.07-.87.28,2.31-6.52.8c-.93,1.55-2.19,4.31-2.17,7.88.02,3.49,1.26,6.19,2.19,7.74l6.3-.31.11,2.32-6.97.34s-.04,0-.06,0Z"/>
        <path class="cls-2" d="M20.72,67.34h11.36c.27,0,.49.22.49.49v4.71c0,.27-.22.49-.49.49h-2.35c-.27,0-.46.22-.46.49v12.28c0,.27-.22.49-.49.49h-4.73c-.27,0-.46-.22-.46-.49v-12.28c0-.27-.22-.49-.49-.49h-2.38c-.24,0-.46-.22-.46-.49v-4.71c0-.27.22-.49.46-.49Z"/>
        <path class="cls-2" d="M41.76,99.73l1.23,4.65c1.23-.36,2.64-.22,3.89-.13.66.05,1.32.05,1.97.06l-1.59-6.02c-.07-.26.06-.52.32-.59l2.27-.6c.26-.07.42-.33.35-.6l-1.2-4.55c-.07-.26-.33-.42-.6-.35l-10.98,2.9c-.24.06-.39.33-.32.59l1.2,4.55c.07.26.33.42.57.35l2.3-.61c.26-.07.53.08.59.35Z"/>
        <path class="cls-2" d="M74.63,99.99l2.3-.61c.26-.07.53.08.59.35l1.28,4.86c1.94-.48,4.1-.64,5.85-.1l-1.64-6.21c-.07-.26.06-.52.32-.59l2.27-.6c.26-.07.42-.33.35-.6l-1.2-4.55c-.07-.26-.33-.42-.6-.35l-10.98,2.9c-.24.06-.39.33-.32.59l1.2,4.55c.07.26.33.42.57.35Z"/>
        <path class="cls-2" d="M43.65,80.11v5.68c0,.27-.22.49-.46.49h-4.76c-.24,0-.46-.22-.46-.49v-14.66c0-2.08,1.7-3.79,3.79-3.79h4.73c2.08,0,3.79,1.7,3.79,3.79v14.66c0,.27-.22.49-.49.49h-4.71c-.27,0-.49-.22-.49-.49v-5.68c0-.24-.22-.46-.49-.46-.24,0-.46.22-.46.46ZM44.11,73.97c.27,0,.49-.22.49-.46,0-.27-.22-.49-.49-.49-.24,0-.46.22-.46.49,0,.24.22.46.46.46Z"/>
        <path class="cls-2" d="M55.68,104.27c1.6-.42,3.43-.37,4.9-.31,2.51.12,5.05.21,7.58.39l-1.5-9.39c-.33-2.06-2.28-3.47-4.34-3.14l-4.67.75c-2.06.33-3.47,2.28-3.14,4.34l1.18,7.37ZM60.87,97.8c.27-.04.51.14.56.4.04.24-.14.49-.41.53-.24.04-.49-.14-.53-.38-.04-.27.14-.51.38-.55Z"/>
        <path class="cls-2" d="M29.69,51.57c-2.28.03-4.56.2-6.84.23-.09,0-.17,0-.26-.01l-1.43,6.97c-.05.26.11.52.35.57l4.66.96c.24.05.49-.12.55-.38l1.15-5.56c.05-.24.3-.41.54-.36.27.05.43.31.38.55l-1.14,5.56c-.05.26.11.52.38.57l4.61.95c.26.05.52-.11.58-.38l1.9-9.22c-1.81-.13-3.57-.47-5.42-.45Z"/>
        <path class="cls-2" d="M75.46,52.03l-1.38,6.72c-.05.26.11.52.35.57l4.66.96c.24.05.49-.12.55-.38l1.15-5.56c.05-.24.3-.41.54-.36.27.05.43.31.38.55l-1.14,5.56c-.05.26.11.52.38.57l4.61.95c.27.05.52-.11.58-.38l1.84-8.95c-4.17-.09-8.34-.18-12.51-.25Z"/>
        <path class="cls-2" d="M61.07,69.59l-.46,6.58c-.02.27.18.5.42.52l5.67.4c.27.02.47.25.45.52l-.33,4.69c-.02.27-.25.47-.52.45l-8.01-.56c-2.08-.14-3.66-1.96-3.51-4.04l.79-11.33c.14-2.08,1.96-3.66,4.04-3.51l4.72.33c2.08.14,3.66,1.96,3.51,4.04l-.56,8.04c-.02.24-.25.44-.52.42l-4.69-.33c-.27-.02-.47-.25-.45-.49l.4-5.67c.02-.27-.18-.5-.45-.52-.24-.02-.47.18-.49.45Z"/>
        <path class="cls-2" d="M22.74,104.35c1.29-.36,2.83-.21,4.12-.01.67.11,1.28.2,1.86.28l-1.43-5.04c-.07-.26.08-.53.31-.59.26-.07.53.08.6.34l1.54,5.44c.43.06.86.1,1.28.14l3.85-1.09c.26-.07.41-.34.34-.57l-2.2-7.75c-.57-2-2.67-3.18-4.68-2.61l-4.55,1.29c-2,.57-3.18,2.67-2.61,4.68l1.56,5.5Z"/>
        <path class="cls-2" d="M82.86,71.13v11.36c0,2.08-1.7,3.79-3.79,3.79h-4.73c-2.08,0-3.79-1.7-3.79-3.79v-11.36c0-2.08,1.7-3.79,3.79-3.79h4.73c2.08,0,3.79,1.7,3.79,3.79ZM77.18,80.11v-6.6c0-.27-.22-.49-.49-.49-.24,0-.46.22-.46.49v6.6c0,.27.22.49.46.49.27,0,.49-.22.49-.49Z"/>
        <path class="cls-2" d="M48.7,52.43l-.68,2.37c-.07.26-.34.41-.6.33-.23-.07-.38-.34-.31-.6l.61-2.12c-1.24-.04-2.42-.22-3.44-.67-.76.06-1.52.09-2.3.07l-.99,3.44c-.58,2,.59,4.11,2.59,4.69l4.55,1.31c2,.58,4.11-.59,4.69-2.59l1.95-6.79c-1.86.15-4.02.5-6.07.56Z"/>
      </g>
    </g>
  </g>
</svg>