<?xml version="1.0" encoding="UTF-8"?>
<svg id="Layer_2" data-name="Layer 2" xmlns="http://www.w3.org/2000/svg" viewBox="0 0 232.92 206.63">
  <defs>
    <style>
      .cls-1 {
        fill: #fedb5b;
      }

      .cls-2 {
        fill: #0f3822;
      }
    </style>
  </defs>
  <g id="Layer_1-2" data-name="Layer 1">
    <g>
      <rect class="cls-2" x="203.83" y="134.75" width="25.19" height="21.78" rx="9.64" ry="9.64"/>
      <g>
        <path class="cls-2" d="M181.83,56.56c-.06,0-.11,0-.17-.01l-4.38-17.91c4.75-3.26,7.88-8.72,7.88-14.91,0-9.95-8.11-18.05-18.07-18.05s-18.05,8.11-18.05,18.05,7.9,17.85,17.68,18.04l3.55,14.53H23.62c-.6,0-1.16.26-1.54.73-6,7.59-16.13,23.68-16.4,46.19,0,0,0,.01,0,.02,0,0,0,0,0,0,0,.05,0,.11,0,.16,0,.67,0,1.33,0,1.98,0,.14,0,.28.01.43.01.59.03,1.18.06,1.77,0,.02,0,.04,0,.05.92,20.01,9.56,34.61,14.87,41.78.37.5.96.79,1.58.79,3.8,0,27.26,0,31.03-.01,0,0,0,0,.01.01h12.74s0,0,0-.01c7.37-.01,14.7-.03,22-.04,0,.02.01.04.02.06h4.34s0-.04,0-.06c5.2-.01,10.39-.03,15.57-.04,21.59-.04,43.17-.08,65.44-.08h.58c6.73-.19,13.36-4.39,18.87-12.07,5.89-8.2,9.85-19.48,11.18-31.76,2.84-26.19-6.91-47.98-22.18-49.64Z"/>
        <path class="cls-2" d="M97.73,155.88H22.2c-2.39,0-4.68-1.14-6.11-3.06C10.52,145.31,1.08,129.52.09,107.9c-.03-.69-.05-1.32-.06-1.96v-.47c-.02-.69-.03-1.4-.02-2.12v-.2c.33-24.2,11.18-41.47,17.62-49.63,1.46-1.84,3.64-2.89,5.99-2.89h139.44l-.91-3.72c-10.68-2.3-18.77-11.9-18.77-23.19,0-13.08,10.64-23.72,23.72-23.72s23.74,10.64,23.74,23.72c0,6.46-2.64,12.58-7.2,17.01l2.68,10.95c16.46,4.71,26.34,27.42,23.34,55.13-1.44,13.25-5.77,25.48-12.21,34.45-5.1,7.09-11.28,11.77-17.81,13.58v.84h-6.25c-22.26.01-43.84.06-65.43.1l-10.21.03v.07ZM55.97,144.54l51.95-.1c21.59-.04,43.18-.08,65.45-.08h.43c4.9-.14,10.02-3.59,14.42-9.71,5.32-7.41,8.92-17.73,10.15-29.06,2.44-22.52-5.17-41.91-16.98-43.38-.31-.02-.69-.07-1.12-.18l-2.94-.75.16.67H25.44c-5.61,7.51-13.85,21.83-14.09,41.33v.08s0,.14,0,.14c0,.57,0,1.18,0,1.78v.4c.02.54.04,1.09.06,1.63.79,17.32,7.86,30.28,12.69,37.21,6.79,0,25.76,0,29.12-.01h2.74s.02.01.02.01ZM167.1,11.34c-6.83,0-12.38,5.56-12.38,12.38s5.44,12.24,12.12,12.37l4.01.08h0s3.23-2.22,3.23-2.22c3.39-2.32,5.42-6.15,5.42-10.23,0-6.83-5.56-12.38-12.4-12.38Z"/>
      </g>
      <path class="cls-2" d="M232.92,159.09c0-4.13-3.36-7.49-7.49-7.49h-25.34c-.72,0-1.42.11-2.07.3-.66-.19-1.37-.3-2.09-.3h-47.53c-.71,0-1.4.11-2.05.3-.65-.19-1.34-.3-2.05-.3h-25.34c-.74,0-1.45.11-2.12.31-.67-.2-1.37-.31-2.1-.31h-10.62c-.72,0-1.41.11-2.07.3-.66-.19-1.36-.3-2.09-.3h-10.5c-.74,0-1.45.11-2.12.31-.67-.2-1.37-.31-2.1-.31h-10.62c-1.77,0-3.4.63-4.68,1.68-2.05-1.07-4.37-1.68-6.84-1.68h-10.56c-3.6,0-6.9,1.29-9.47,3.42-2.57-2.14-5.87-3.42-9.47-3.42H15.62c-4.09,0-7.43,3.36-7.43,7.49v40.05c0,4.13,3.33,7.49,7.43,7.49h10.62c.73,0,1.44-.11,2.1-.31.67.2,1.38.31,2.12.31h10.5c1.79,0,3.44-.63,4.73-1.69,2.05,1.07,4.38,1.69,6.85,1.69h10.56c3.6,0,6.9-1.29,9.47-3.43,2.57,2.14,5.87,3.43,9.47,3.43h16.89c.94,0,1.85-.16,2.69-.44.78.28,1.62.44,2.49.44h40.17c2.32,0,4.4-1.08,5.76-2.77,1.36,1.69,3.44,2.77,5.76,2.77h10.56c2.35,0,4.44-1.09,5.81-2.78,1.36,1.69,3.44,2.78,5.77,2.78h10.62c2.32,0,4.4-1.08,5.76-2.77,1.36,1.69,3.44,2.77,5.76,2.77h25.34c4.13,0,7.49-3.36,7.49-7.49v-10.5c0-.74-.11-1.45-.31-2.12.2-.67.31-1.37.31-2.1v-10.62c0-.73-.11-1.44-.31-2.1.2-.67.31-1.38.31-2.12v-10.5Z"/>
      <g>
        <path class="cls-1" d="M42.05,184.9v14.24c0,.6-.48,1.09-1.09,1.09h-10.5c-.6,0-1.09-.48-1.09-1.09v-12.67c0-.54-.48-1.03-1.09-1.03-.54,0-1.03.48-1.03,1.03v12.67c0,.6-.48,1.09-1.03,1.09h-10.62c-.54,0-1.03-.48-1.03-1.09v-40.05c0-.6.48-1.09,1.03-1.09h17.98c4.64,0,8.44,3.8,8.44,8.44v6.33c0,2.41-1.03,4.52-2.59,6.09,1.57,1.51,2.59,3.68,2.59,6.03ZM29.38,171.75c0-.6-.48-1.09-1.09-1.09-.54,0-1.03.48-1.03,1.09,0,.54.48,1.03,1.03,1.03.6,0,1.09-.48,1.09-1.03Z"/>
        <path class="cls-1" d="M71.54,166.45v25.34c0,4.64-3.8,8.44-8.44,8.44h-10.56c-4.65,0-8.45-3.8-8.45-8.44v-25.34c0-4.64,3.8-8.44,8.45-8.44h10.56c4.64,0,8.44,3.8,8.44,8.44ZM58.88,186.47v-14.72c0-.6-.48-1.09-1.09-1.09-.54,0-1.03.48-1.03,1.09v14.72c0,.6.48,1.09,1.03,1.09.6,0,1.09-.48,1.09-1.09Z"/>
        <path class="cls-1" d="M88.38,186.47v-27.39c0-.6.48-1.09,1.09-1.09h10.5c.6,0,1.09.48,1.09,1.09v39.03c0,1.15-.96,2.11-2.11,2.11h-16.89c-4.65,0-8.45-3.8-8.45-8.44v-32.69c0-.6.48-1.09,1.03-1.09h10.62c.54,0,1.03.48,1.03,1.09v27.39c0,.6.48,1.09,1.03,1.09.6,0,1.09-.48,1.09-1.09Z"/>
        <path class="cls-1" d="M145.32,188.64v10.5c0,.6-.48,1.09-1.03,1.09h-40.17c-.54,0-1.03-.48-1.03-1.09v-40.05c0-.6.48-1.09,1.03-1.09h10.62c.54,0,1.03.48,1.03,1.09v27.39c0,.6.48,1.09,1.03,1.09h27.51c.54,0,1.03.48,1.03,1.09ZM131.63,167.83h12.67c.54,0,1.03.48,1.03,1.09v5.61c0,.6-.48,1.09-1.03,1.09h-12.67c-.6,0-1.09.48-1.09,1.03,0,.6.48,1.09,1.09,1.09h12.67c.54,0,1.03.48,1.03,1.03v5.67c0,.54-.48,1.03-1.03,1.03h-25.34c-.6,0-1.09-.48-1.09-1.03v-25.33c0-.6.48-1.09,1.09-1.09h25.34c.54,0,1.03.48,1.03,1.09v5.61c0,.54-.48,1.03-1.03,1.03h-12.67c-.6,0-1.09.48-1.09,1.09,0,.54.48,1.03,1.09,1.03Z"/>
        <path class="cls-1" d="M197.02,159.09v10.5c0,.6-.48,1.09-1.09,1.09h-27.45c-.6,0-1.03.48-1.03,1.09v27.39c0,.6-.48,1.09-1.09,1.09h-10.56c-.6,0-1.03-.48-1.03-1.09v-27.39c0-.6-.48-1.09-1.09-1.09h-5.31c-.54,0-1.03-.48-1.03-1.09v-10.5c0-.6.48-1.09,1.03-1.09h47.53c.6,0,1.09.48,1.09,1.09ZM197.02,173.8v10.62c0,.54-.48,1.03-1.09,1.03h-5.31c-.54,0-1.03.48-1.03,1.03v12.67c0,.6-.48,1.09-1.03,1.09h-10.62c-.54,0-1.03-.48-1.03-1.09v-12.67c0-.54-.48-1.03-1.03-1.03h-5.31c-.6,0-1.09-.48-1.09-1.03v-10.62c0-.54.48-1.03,1.09-1.03h25.34c.6,0,1.09.48,1.09,1.03Z"/>
        <path class="cls-1" d="M212.77,172.78h12.67c.6,0,1.09.48,1.09,1.03v10.62c0,.54-.48,1.03-1.09,1.03h-12.67c-.54,0-1.03.48-1.03,1.03,0,.6.48,1.09,1.03,1.09h12.67c.6,0,1.09.48,1.09,1.09v10.5c0,.6-.48,1.09-1.09,1.09h-25.34c-.54,0-1.03-.48-1.03-1.09v-40.05c0-.6.48-1.09,1.03-1.09h25.34c.6,0,1.09.48,1.09,1.09v10.5c0,.6-.48,1.09-1.09,1.09h-12.67c-.54,0-1.03.48-1.03,1.09,0,.54.48,1.03,1.03,1.03Z"/>
      </g>
      <g>
        <path class="cls-1" d="M182.11,56.56c-.06,0-.11,0-.17-.01l-4.38-17.91c4.75-3.26,7.88-8.71,7.88-14.91,0-9.95-8.11-18.05-18.07-18.05s-18.05,8.11-18.05,18.05,7.9,17.85,17.68,18.04l3.55,14.53H23.9c-.6,0-1.16.26-1.54.73-6,7.59-16.13,23.68-16.4,46.19-.28,22.28,9.26,38.5,14.95,46.19.37.5.96.79,1.58.79,3.8,0,27.26,0,31.03-.01,0,0,0,0,.01.01h12.74s0,0,0-.01c7.37-.01,14.7-.03,22-.04,0,.02.01.04.02.06h4.34s0-.04,0-.06c5.2-.01,10.39-.03,15.57-.04,21.59-.04,43.17-.08,65.44-.08h.58c6.73-.19,13.36-4.39,18.87-12.07,5.89-8.2,9.85-19.48,11.18-31.76,2.84-26.19-6.91-47.98-22.18-49.64Z"/>
        <path class="cls-2" d="M173.81,149.48c-.58,0-1.17-.03-1.75-.09-14.72-1.59-24.46-23.59-21.71-49.03,1.32-12.19,5.26-23.38,11.09-31.5,6-8.36,13.32-12.54,20.61-11.75,14.72,1.59,24.46,23.59,21.71,49.03-1.32,12.19-5.26,23.38-11.09,31.5-5.52,7.7-12.16,11.84-18.86,11.84ZM180.32,59.85c-5.77,0-11.6,3.73-16.57,10.66-5.55,7.74-9.31,18.45-10.58,30.15-2.59,23.89,6.02,44.48,19.19,45.91,6.23.67,12.62-3.08,18-10.58,5.55-7.74,9.31-18.45,10.58-30.15,2.59-23.89-6.02-44.48-19.19-45.91-.48-.05-.95-.08-1.43-.08Z"/>
        <path class="cls-2" d="M20.53,149.66c-.45,0-.87-.21-1.14-.57-5.66-7.63-15.12-23.74-14.84-45.86.28-22.35,10.32-38.32,16.29-45.86.27-.34.68-.54,1.11-.54h155.12v2.83H22.63c-5.78,7.45-14.99,22.6-15.25,43.59-.26,20.75,8.38,36,13.87,43.56,22.33,0,49.24-.05,76.14-.09,27.19-.05,54.39-.09,76.86-.09v2.83c-22.47,0-49.67.05-76.86.09-27.19.05-54.39.09-76.86.09Z"/>
        <path class="cls-2" d="M153.06,72.37c-4.63,8.38-9.15,20.39-9.15,35.37,0,14.02,3.99,25.42,8.1,33.43H33.09c-3.43-4.94-9.11-17.1-10.29-34.59-1.04-15.35,3.83-27.56,7.34-34.21h122.92M158.06,69.54H28.46c-2.92,5.17-9.74,18.81-8.49,37.23,1.32,19.54,8.03,32.68,11.7,37.23h125.15c-3.28-5.45-10.09-18.43-10.08-36.26,0-19.18,7.89-32.9,11.32-38.21h0Z"/>
        <path class="cls-2" d="M188.71,118.63c-4.71,0-8.4-6.18-8.4-14.06s3.69-14.06,8.4-14.06,8.4,6.18,8.4,14.06-3.69,14.06-8.4,14.06ZM188.71,93.33c-2.63,0-5.57,4.61-5.57,11.23s2.94,11.23,5.57,11.23,5.57-4.61,5.57-11.23-2.94-11.23-5.57-11.23Z"/>
        <g>
          <circle class="cls-1" cx="167.39" cy="23.73" r="16.1"/>
          <path class="cls-2" d="M167.39,41.24c-9.66,0-17.51-7.86-17.51-17.51s7.86-17.51,17.51-17.51,17.51,7.86,17.51,17.51-7.86,17.51-17.51,17.51ZM167.39,9.05c-8.09,0-14.68,6.58-14.68,14.68s6.58,14.68,14.68,14.68,14.68-6.58,14.68-14.68-6.58-14.68-14.68-14.68Z"/>
        </g>
        <path class="cls-2" d="M163.33,25.15c-3.02,0-5.49-2.46-5.49-5.49s2.46-5.49,5.49-5.49,5.48,2.46,5.48,5.49-2.46,5.49-5.48,5.49ZM163.33,17.01c-1.46,0-2.65,1.19-2.65,2.65s1.19,2.65,2.65,2.65,2.65-1.19,2.65-2.65-1.19-2.65-2.65-2.65Z"/>
        <g>
          <polygon class="cls-1" points="175.46 38.25 168.59 39.93 181.37 92.35 188.43 91.43 175.46 38.25"/>
          <path class="cls-2" d="M181.37,93.77c-.64,0-1.22-.44-1.38-1.08l-12.79-52.43c-.09-.37-.03-.75.17-1.07s.51-.55.88-.64l6.87-1.68c.76-.18,1.53.28,1.71,1.04l12.97,53.18c.1.39.02.8-.21,1.14-.23.33-.59.55-.99.6l-7.06.92c-.06,0-.12.01-.18.01ZM170.3,40.97l12.15,49.81,4.23-.55-12.26-50.27-4.12,1Z"/>
        </g>
        <path class="cls-2" d="M179.14,119.09c-.47,0-.92-.24-1.18-.63-1.48-2.21-3.96-6.84-3.99-13.03-.04-6.2,2.4-10.87,3.86-13.1.23-.35.6-.58,1.01-.63l9.7-1.19.35,2.81-9.03,1.11c-1.29,2.12-3.08,5.99-3.05,10.98.03,4.89,1.79,8.67,3.09,10.81l8.75-.43.14,2.83-9.57.47s-.05,0-.07,0Z"/>
        <path class="cls-2" d="M55.52,143.53c-7.16-14.01-8.66-27.72-8.66-36.75,0-15.6,5.04-28.73,9.27-37l2.52,1.29c-4.08,7.99-8.96,20.68-8.96,35.71,0,8.72,1.45,21.95,8.35,35.46l-2.52,1.29Z"/>
        <path class="cls-2" d="M121.17,143.53c-8.51-16.66-9.17-32.34-9.17-36.75,0-12.14,3.26-24.94,9.42-37l2.52,1.29c-5.96,11.66-9.11,24.01-9.11,35.71,0,4.25.64,19.37,8.86,35.46l-2.52,1.29Z"/>
        <path class="cls-2" d="M85.99,143.53c-8.51-16.66-9.17-32.34-9.17-36.75,0-12.15,3.26-24.94,9.42-37l2.52,1.29c-5.96,11.66-9.11,24.01-9.11,35.71,0,4.25.64,19.37,8.86,35.46l-2.52,1.29Z"/>
        <path class="cls-2" d="M27.01,91.7h15.59c.37,0,.67.3.67.67v6.46c0,.37-.3.67-.67.67h-3.23c-.37,0-.63.3-.63.67v16.85c0,.37-.3.67-.67.67h-6.49c-.37,0-.63-.3-.63-.67v-16.85c0-.37-.3-.67-.67-.67h-3.27c-.33,0-.63-.3-.63-.67v-6.46c0-.37.3-.67.63-.67Z"/>
        <path class="cls-2" d="M64.55,136.14l1.68,6.38c1.69-.49,3.62-.3,5.33-.18.91.06,1.8.07,2.7.08l-2.18-8.26c-.09-.36.08-.71.44-.81l3.12-.82c.36-.09.57-.46.48-.82l-1.65-6.24c-.09-.36-.46-.57-.82-.48l-15.07,3.98c-.32.09-.53.45-.44.81l1.65,6.24c.09.36.46.57.78.49l3.16-.83c.36-.09.72.12.82.48Z"/>
        <path class="cls-2" d="M126.46,136.5l3.16-.83c.36-.09.72.12.82.48l1.76,6.67c2.66-.66,5.62-.88,8.02-.14l-2.25-8.52c-.09-.36.08-.71.44-.81l3.12-.82c.36-.09.57-.46.48-.82l-1.65-6.24c-.09-.36-.46-.57-.82-.48l-15.07,3.98c-.32.09-.53.45-.44.81l1.65,6.24c.09.36.46.57.78.49Z"/>
        <path class="cls-2" d="M61.67,109.21v7.79c0,.37-.3.67-.63.67h-6.53c-.33,0-.63-.3-.63-.67v-20.11c0-2.86,2.34-5.2,5.2-5.2h6.49c2.86,0,5.2,2.34,5.2,5.2v20.11c0,.37-.3.67-.67.67h-6.46c-.37,0-.67-.3-.67-.67v-7.79c0-.33-.3-.63-.67-.63-.33,0-.63.3-.63.63ZM62.3,100.79c.37,0,.67-.3.67-.63,0-.37-.3-.67-.67-.67-.33,0-.63.3-.63.67,0,.33.3.63.63.63Z"/>
        <path class="cls-2" d="M95.89,142.36c2.2-.57,4.71-.51,6.72-.42,3.44.16,6.93.29,10.4.53l-2.06-12.89c-.45-2.82-3.13-4.76-5.95-4.31l-6.41,1.03c-2.82.45-4.76,3.13-4.31,5.95l1.62,10.11ZM103,133.49c.37-.06.71.19.76.55.05.33-.19.67-.56.73-.33.05-.67-.19-.72-.52-.06-.37.19-.71.52-.76Z"/>
        <path class="cls-2" d="M42,70.05c-3.13.03-6.25.28-9.38.31-.12,0-.24-.01-.35-.02l-1.97,9.56c-.07.36.16.71.48.78l6.4,1.32c.33.07.68-.16.75-.53l1.57-7.63c.07-.33.42-.56.75-.49.36.07.59.43.53.75l-1.57,7.63c-.07.36.16.71.52.79l6.32,1.3c.36.07.71-.16.79-.52l2.6-12.65c-2.48-.18-4.9-.64-7.44-.61Z"/>
        <path class="cls-2" d="M127.59,70.68l-1.9,9.23c-.07.36.16.71.48.78l6.4,1.32c.33.07.68-.16.75-.53l1.57-7.63c.07-.33.42-.56.75-.49.36.07.59.43.53.75l-1.57,7.63c-.07.36.16.71.52.79l6.32,1.3c.36.07.71-.16.79-.52l2.53-12.28c-5.72-.12-11.44-.25-17.17-.35Z"/>
        <path class="cls-2" d="M95.77,94.78l-.63,9.03c-.03.37.25.69.58.71l7.77.54c.37.03.65.34.62.71l-.45,6.44c-.03.37-.34.65-.71.62l-10.99-.77c-2.85-.2-5.02-2.69-4.82-5.54l1.08-15.55c.2-2.85,2.69-5.02,5.54-4.82l6.48.45c2.85.2,5.02,2.69,4.82,5.54l-.77,11.03c-.02.33-.34.61-.71.58l-6.44-.45c-.37-.03-.65-.34-.62-.68l.54-7.77c.03-.37-.25-.69-.62-.71-.33-.02-.65.25-.68.62Z"/>
        <path class="cls-2" d="M34.63,142.47c1.78-.5,3.88-.29,5.65-.01.92.14,1.76.27,2.56.39l-1.96-6.91c-.1-.36.1-.72.42-.81.36-.1.72.1.82.46l2.12,7.46c.59.08,1.18.14,1.76.2l5.28-1.5c.36-.1.56-.47.47-.79l-3.02-10.64c-.78-2.75-3.67-4.36-6.42-3.58l-6.25,1.77c-2.75.78-4.36,3.67-3.58,6.42l2.14,7.55Z"/>
        <path class="cls-2" d="M137.75,96.89v15.59c0,2.86-2.34,5.2-5.2,5.2h-6.49c-2.86,0-5.2-2.34-5.2-5.2v-15.59c0-2.86,2.34-5.2,5.2-5.2h6.49c2.86,0,5.2,2.34,5.2,5.2ZM129.96,109.21v-9.06c0-.37-.3-.67-.67-.67-.33,0-.63.3-.63.67v9.06c0,.37.3.67.63.67.37,0,.67-.3.67-.67Z"/>
        <path class="cls-2" d="M71.07,71.22l-.94,3.26c-.1.36-.47.56-.83.46-.32-.09-.52-.46-.42-.82l.83-2.9c-1.7-.05-3.32-.3-4.71-.92-1.04.08-2.09.12-3.16.09l-1.36,4.72c-.79,2.75.81,5.64,3.56,6.43l6.24,1.79c2.75.79,5.64-.81,6.43-3.56l2.68-9.31c-2.56.21-5.52.69-8.33.76Z"/>
      </g>
      <g>
        <path class="cls-1" d="M207.59,139.52h6.15c.15,0,.26.12.26.26v2.55c0,.15-.12.26-.26.26h-1.27c-.15,0-.25.12-.25.26v6.65c0,.15-.12.26-.26.26h-2.56c-.15,0-.25-.12-.25-.26v-6.65c0-.15-.12-.26-.26-.26h-1.29c-.13,0-.25-.12-.25-.26v-2.55c0-.15.12-.26.25-.26Z"/>
        <path class="cls-1" d="M221.17,142.86v6.65c0,.15-.12.26-.26.26h-2.55c-.15,0-.26-.12-.26-.26v-6.65c0-.15-.12-.26-.26-.26-.13,0-.25.12-.25.26v6.65c0,.15-.12.26-.25.26h-2.58c-.13,0-.25-.12-.25-.26v-9.73c0-.15.12-.26.25-.26h3.34c.62,0,1.16.28,1.54.7.38-.42.92-.7,1.54-.7h1.54c1.13,0,2.05.92,2.05,2.05v7.94c0,.15-.12.26-.25.26h-2.58c-.13,0-.25-.12-.25-.26v-6.65c0-.15-.12-.26-.25-.26-.15,0-.26.12-.26.26Z"/>
      </g>
    </g>
  </g>
</svg>