<?xml version="1.0" encoding="UTF-8"?>
<svg id="Layer_2" data-name="Layer 2" xmlns="http://www.w3.org/2000/svg" viewBox="0 0 181.9 83.95">
  <defs>
    <style>
      .cls-1 {
        fill: #fedb5b;
      }

      .cls-2 {
        fill: #0f3822;
      }
    </style>
  </defs>
  <g id="Layer_1-2" data-name="Layer 1">
    <g>
      <path class="cls-1" d="M101.37,11.68c0-6.44-5.24-11.68-11.68-11.68h-8.31c-2.84,0-5.45,1.02-7.48,2.72-2.03-1.69-4.63-2.72-7.48-2.72h-8.31c-2.83,0-5.43,1.01-7.45,2.7-2.02-1.68-4.62-2.7-7.45-2.7h-8.31c-1.95,0-3.78.48-5.39,1.33-1.02-.83-2.31-1.33-3.72-1.33H5.84C2.62,0,0,2.64,0,5.89v8.26c0,3.25,2.62,5.89,5.84,5.89v17.37c0,3.25,2.62,5.89,5.84,5.89h8.31c1.83,0,3.47-.84,4.55-2.16,1.07,1.32,2.7,2.16,4.52,2.16h8.36c.57,0,1.13-.08,1.65-.24.53.16,1.09.24,1.67.24h8.26c1.41,0,2.71-.5,3.72-1.33,1.62.85,3.45,1.33,5.39,1.33h37.36c3.25,0,5.89-2.64,5.89-5.89v-8.26c0-1.42-.5-2.72-1.34-3.74.85-1.62,1.34-3.46,1.34-5.42v-8.31Z"/>
      <path class="cls-1" d="M181.9,46.53c0-3.25-2.64-5.89-5.89-5.89h-19.94c-.57,0-1.11.09-1.63.24-.52-.15-1.07-.24-1.65-.24h-37.41c-.56,0-1.1.08-1.62.23-.51-.15-1.05-.23-1.62-.23h-19.94c-.58,0-1.14.09-1.67.24-.53-.16-1.08-.24-1.65-.24h-8.36c-.57,0-1.11.09-1.63.24-.52-.15-1.07-.24-1.65-.24h-8.26c-.58,0-1.14.08-1.67.24-.52-.16-1.08-.24-1.65-.24h-8.36c-1.4,0-2.68.5-3.69,1.32-1.61-.84-3.44-1.32-5.38-1.32h-8.31c-2.83,0-5.43,1.01-7.45,2.7-2.02-1.68-4.62-2.7-7.45-2.7h-14.15c-3.22,0-5.84,2.64-5.84,5.89v31.52c0,3.25,2.62,5.89,5.84,5.89h8.36c.57,0,1.13-.08,1.65-.24.53.16,1.09.24,1.67.24h8.26c1.41,0,2.71-.5,3.72-1.33,1.62.85,3.45,1.33,5.39,1.33h8.31c2.83,0,5.43-1.01,7.45-2.7,2.02,1.68,4.62,2.7,7.45,2.7h13.29c.74,0,1.45-.13,2.12-.35.61.22,1.27.35,1.96.35h31.62c1.83,0,3.46-.85,4.54-2.18,1.07,1.33,2.71,2.18,4.54,2.18h8.31c1.85,0,3.49-.85,4.58-2.19,1.07,1.33,2.71,2.19,4.54,2.19h8.36c1.83,0,3.46-.85,4.54-2.18,1.07,1.33,2.71,2.18,4.54,2.18h19.94c3.25,0,5.89-2.64,5.89-5.89v-8.26c0-.58-.08-1.14-.24-1.67.16-.52.24-1.08.24-1.65v-8.36c0-.57-.08-1.13-.24-1.65.16-.53.24-1.09.24-1.67v-8.26Z"/>
      <g>
        <path class="cls-2" d="M5.84,5.04h19.94c.48,0,.85.38.85.85v8.26c0,.47-.38.85-.85.85h-4.13c-.47,0-.81.38-.81.85v21.55c0,.47-.38.85-.85.85h-8.31c-.47,0-.81-.38-.81-.85V15.86c0-.47-.38-.85-.85-.85h-4.18c-.43,0-.81-.38-.81-.85V5.89c0-.48.38-.85.81-.85Z"/>
        <path class="cls-2" d="M38.22,27.45v9.97c0,.47-.38.85-.81.85h-8.36c-.43,0-.81-.38-.81-.85V11.68c0-3.66,2.99-6.65,6.65-6.65h8.31c3.66,0,6.65,2.99,6.65,6.65v25.73c0,.47-.38.85-.85.85h-8.26c-.47,0-.85-.38-.85-.85v-9.97c0-.43-.38-.81-.85-.81-.43,0-.81.38-.81.81ZM39.03,16.67c.48,0,.85-.38.85-.81,0-.47-.38-.85-.85-.85-.43,0-.81.38-.81.85,0,.43.38.81.81.81Z"/>
        <path class="cls-2" d="M61.44,15.86v11.58c0,.48.38.85.81.85h33.23c.47,0,.85.38.85.85v8.26c0,.47-.38.85-.85.85h-37.36c-3.66,0-6.65-2.99-6.65-6.65V11.68c0-3.66,2.99-6.65,6.65-6.65h8.31c3.66,0,6.65,2.99,6.65,6.65v14.15c0,.43-.38.81-.85.81h-8.26c-.47,0-.85-.38-.85-.81v-9.97c0-.47-.38-.85-.85-.85-.43,0-.81.38-.81.85ZM96.34,11.68v8.31c0,3.65-2.99,6.65-6.65,6.65h-8.31c-3.66,0-6.65-2.99-6.65-6.65v-8.31c0-3.66,2.99-6.65,6.65-6.65h8.31c3.66,0,6.65,2.99,6.65,6.65ZM86.37,15.86c0-.47-.38-.85-.85-.85-.43,0-.81.38-.81.85,0,.43.38.81.81.81.47,0,.85-.38.85-.81Z"/>
      </g>
      <g>
        <path class="cls-2" d="M31.68,66.85v11.2c0,.47-.38.85-.85.85h-8.26c-.47,0-.85-.38-.85-.85v-9.97c0-.43-.38-.81-.85-.81-.43,0-.81.38-.81.81v9.97c0,.47-.38.85-.81.85h-8.36c-.43,0-.81-.38-.81-.85v-31.52c0-.48.38-.85.81-.85h14.15c3.66,0,6.65,2.99,6.65,6.65v4.98c0,1.9-.81,3.56-2.04,4.79,1.23,1.19,2.04,2.9,2.04,4.75ZM21.71,56.5c0-.48-.38-.85-.85-.85-.43,0-.81.38-.81.85,0,.43.38.81.81.81.48,0,.85-.38.85-.81Z"/>
        <path class="cls-2" d="M54.89,52.32v19.94c0,3.66-2.99,6.65-6.65,6.65h-8.31c-3.66,0-6.65-2.99-6.65-6.65v-19.94c0-3.66,2.99-6.65,6.65-6.65h8.31c3.66,0,6.65,2.99,6.65,6.65ZM44.92,68.09v-11.58c0-.48-.38-.85-.85-.85-.43,0-.81.38-.81.85v11.58c0,.48.38.85.81.85.48,0,.85-.38.85-.85Z"/>
        <path class="cls-2" d="M68.14,68.09v-21.55c0-.48.38-.85.85-.85h8.26c.47,0,.85.38.85.85v30.72c0,.9-.76,1.66-1.66,1.66h-13.29c-3.66,0-6.65-2.99-6.65-6.65v-25.73c0-.48.38-.85.81-.85h8.36c.43,0,.81.38.81.85v21.55c0,.48.38.85.81.85.48,0,.85-.38.85-.85Z"/>
        <path class="cls-2" d="M112.96,69.8v8.26c0,.47-.38.85-.81.85h-31.62c-.43,0-.81-.38-.81-.85v-31.52c0-.48.38-.85.81-.85h8.36c.43,0,.81.38.81.85v21.55c0,.48.38.85.81.85h21.65c.43,0,.81.38.81.85ZM102.18,53.42h9.97c.43,0,.81.38.81.85v4.42c0,.47-.38.85-.81.85h-9.97c-.47,0-.85.38-.85.81,0,.47.38.85.85.85h9.97c.43,0,.81.38.81.81v4.46c0,.43-.38.81-.81.81h-19.94c-.47,0-.85-.38-.85-.81v-19.94c0-.48.38-.85.85-.85h19.94c.43,0,.81.38.81.85v4.41c0,.43-.38.81-.81.81h-9.97c-.47,0-.85.38-.85.85,0,.43.38.81.85.81Z"/>
        <path class="cls-2" d="M153.65,46.53v8.26c0,.47-.38.85-.85.85h-21.6c-.47,0-.81.38-.81.85v21.55c0,.47-.38.85-.85.85h-8.31c-.47,0-.81-.38-.81-.85v-21.55c0-.48-.38-.85-.85-.85h-4.18c-.43,0-.81-.38-.81-.85v-8.26c0-.48.38-.85.81-.85h37.41c.47,0,.85.38.85.85ZM153.65,58.12v8.36c0,.43-.38.81-.85.81h-4.18c-.43,0-.81.38-.81.81v9.97c0,.47-.38.85-.81.85h-8.36c-.43,0-.81-.38-.81-.85v-9.97c0-.43-.38-.81-.81-.81h-4.18c-.47,0-.85-.38-.85-.81v-8.36c0-.43.38-.81.85-.81h19.94c.47,0,.85.38.85.81Z"/>
        <path class="cls-2" d="M166.04,57.31h9.97c.48,0,.85.38.85.81v8.36c0,.43-.38.81-.85.81h-9.97c-.43,0-.81.38-.81.81,0,.48.38.85.81.85h9.97c.48,0,.85.38.85.85v8.26c0,.47-.38.85-.85.85h-19.94c-.43,0-.81-.38-.81-.85v-31.52c0-.48.38-.85.81-.85h19.94c.48,0,.85.38.85.85v8.26c0,.47-.38.85-.85.85h-9.97c-.43,0-.81.38-.81.85,0,.43.38.81.81.81Z"/>
      </g>
    </g>
  </g>
</svg>